<?xml version="1.0" encoding="utf-8"?>
<!-- Generator: Adobe Illustrator 27.8.1, SVG Export Plug-In . SVG Version: 6.00 Build 0)  -->
<svg version="1.1" id="Layer_2_00000110451109873889671330000007211186203034123195_"
	 xmlns="http://www.w3.org/2000/svg" xmlns:xlink="http://www.w3.org/1999/xlink" x="0px" y="0px" viewBox="0 0 246.9 246.9"
	 style="enable-background:new 0 0 246.9 246.9;" xml:space="preserve">
<style type="text/css">
	.st0{fill:#FFFFFF;}
	.st1{fill:#FFDEE4;}
</style>
<g id="Layer_1-2">
	<circle cx="123.4" cy="123.4" r="123.4"/>
	<path class="st0" d="M104.3,206.7H82.1V95.1c0-18.2,4.9-32,14.8-41.3c9.8-9.4,24.3-14,43.5-14h30V59h-29.8
		c-12.7,0-21.9,3.1-27.6,9.2s-8.6,15.9-8.6,29.5v18.1h66V135h-66L104.3,206.7L104.3,206.7z"/>
	<path class="st1" d="M153.3,180c4,0,7.4,1.4,10.2,4.2c2.8,2.8,4.2,6.2,4.2,10.2s-1.4,7.4-4.2,10.2c-2.8,2.8-6.2,4.2-10.2,4.2
		s-7.4-1.4-10.2-4.2c-2.8-2.8-4.2-6.2-4.2-10.2s1.4-7.4,4.2-10.2S149.3,180,153.3,180z"/>
</g>
</svg>
