<svg width="300" height="300" viewBox="0 0 300 300" fill="none" xmlns="http://www.w3.org/2000/svg">
<path d="M150 273.44C218.174 273.44 273.44 218.174 273.44 150C273.44 81.826 218.174 26.56 150 26.56C81.826 26.56 26.5601 81.826 26.5601 150C26.5601 218.174 81.826 273.44 150 273.44Z" fill="#E587A3"/>
<path d="M125.68 241.59H100.94V117.44C100.94 97.21 106.4 81.91 117.34 71.51C128.27 61.12 144.39 55.92 165.7 55.92H199.05V77.32H165.97C151.89 77.32 141.65 80.72 135.26 87.51C128.87 94.3 125.67 105.24 125.67 120.31V140.41H199.05V161.81H125.67V241.58L125.68 241.59Z" fill="white" stroke="white" stroke-width="4" stroke-miterlimit="10"/>
<path d="M180.16 211.84C184.61 211.84 188.4 213.42 191.56 216.57C194.71 219.72 196.29 223.52 196.29 227.97C196.29 232.42 194.71 236.22 191.56 239.37C188.41 242.52 184.61 244.1 180.16 244.1C175.71 244.1 171.91 242.52 168.76 239.37C165.61 236.22 164.03 232.42 164.03 227.97C164.03 223.52 165.6 219.73 168.76 216.57C171.92 213.41 175.71 211.84 180.16 211.84Z" fill="white" stroke="white" stroke-width="4" stroke-miterlimit="10"/>
</svg>
