<?xml version="1.0" encoding="UTF-8"?><svg id="a" xmlns="http://www.w3.org/2000/svg" width="399.93" height="125.78" viewBox="0 0 399.93 125.78"><path d="m207.61,85.01c3.58,1.98,6.87,3.8,10.06,5.56-5.29,23.25-22.73,36.36-46.22,35.12-21.87-1.16-39.52-19.28-41.16-40.36-1.57-20.11,11.26-39.91,30.77-45.44,21.49-6.09,42.14,3.07,52.04,23.51-17.7,11.56-35.46,23.17-53.71,35.09-2.24-3.77-4.32-7.27-6.55-11.03,13.58-9.12,26.94-18.08,40.25-27.02-4.4-9.1-21.22-10.86-30.79-6.4-11.65,5.43-18.33,18.6-16.09,32,2.26,13.47,13.6,24.7,26.18,25.91,14.75,1.41,26.66-5.78,32.5-19.66.95-2.25,1.72-4.58,2.73-7.29Z" style="stroke-width:0px;"/><path d="m342.57,75.5c3.02,1.47,6.47,2.75,9.48,4.7,7.61,4.92,10.88,12.44,11.24,21.19.31,7.28.06,14.58.06,22.26h-14.81c0-5.88.02-11.65,0-17.42-.07-15.1-5.6-20.83-20.71-21.31-4.98-.16-9.97-.02-15.54-.02v38.78h-14.71V.59h14.37v70.18c11.04,3.36,19.07.47,24.67-8.73,3.72-6.11,7.42-12.25,10.82-18.54,1.57-2.9,3.45-4.04,6.71-3.78,3.63.29,7.31.07,12.13.07-8.27,12.36-13.4,25.76-23.71,35.71Z" style="stroke-width:0px;"/><path d="m16.43,70.8v52.94H0v-5.43c0-25.82,0-51.64,0-77.45C0,15.5,12.99,1.66,38.57.23c8.61-.48,17.26-.08,26.36-.08v14.55c-7.6,0-15.07-.33-22.49.12-4.73.28-9.65,1.06-14.02,2.78-7.23,2.84-10.24,9.4-11.11,16.61-.86,7.06-.81,14.23-1.19,21.99h48.8v14.59H16.43Z" style="stroke-width:0px;"/><path d="m280.7,39.95v12.95c-3.63,0-7.23-.11-10.83.02-14.1.51-25,7.35-28.81,18.51-5.76,16.87.6,38.21,29.16,39.34,3.32.13,6.64.02,10.33.02v12.5c-17.97,4.66-38.78-2.45-49.85-17.08-10.33-13.65-9-36.93,2.68-51.25,7.87-9.65,17.86-14.71,30.27-14.99,5.49-.12,10.98-.02,17.04-.02Z" style="stroke-width:0px;"/><path d="m82.46,40.08h14.51v11.81c8.38-11.04,19.14-15.25,32.76-13.64v13.45c-3.16.28-6.28.37-9.35.85-13.49,2.1-20.89,9.29-22.32,22.9-.96,9.06-.77,18.25-.95,27.39-.13,6.8-.03,13.61-.03,20.81h-14.63V40.08Z" style="stroke-width:0px;"/><path d="m399.93,115.05c-.05,6.04-4.72,10.66-10.75,10.65-6.03-.01-10.61-4.64-10.62-10.76-.02-6.25,4.89-11.15,10.98-10.95,5.88.19,10.45,5.05,10.4,11.06Z" style="stroke-width:0px;"/></svg>